<svg xmlns="http://www.w3.org/2000/svg" viewBox="0 0 960 720" role="img">
  <title>A stylized web browser window with layout blocks representing course materials</title>
  <defs>
    <linearGradient id="bg" x1="0" y1="0" x2="1" y2="1">
      <stop offset="0%" stop-color="#121a3a" />
      <stop offset="100%" stop-color="#233b6b" />
    </linearGradient>
    <linearGradient id="panel" x1="0" y1="0" x2="1" y2="1">
      <stop offset="0%" stop-color="#f3f5ff" />
      <stop offset="100%" stop-color="#d9ddff" />
    </linearGradient>
    <linearGradient id="accent" x1="0" y1="0" x2="1" y2="1">
      <stop offset="0%" stop-color="#ff64b4" />
      <stop offset="100%" stop-color="#ffa37b" />
    </linearGradient>
  </defs>
  <rect width="960" height="720" fill="url(#bg)" rx="32" ry="32" />
  <g transform="translate(80 80)">
    <rect width="800" height="560" rx="28" ry="28" fill="url(#panel)" />
    <rect width="800" height="84" rx="28" ry="28" fill="#1b2550" />
    <g transform="translate(32 32)" fill="#ff8fa3">
      <circle cx="0" cy="0" r="10" />
      <circle cx="38" cy="0" r="10" />
      <circle cx="76" cy="0" r="10" />
    </g>
    <rect x="152" y="28" width="432" height="28" rx="14" ry="14" fill="#2d3a70" />
    <g transform="translate(64 132)" fill="#1b2550" opacity="0.7">
      <rect width="672" height="12" rx="6" ry="6" />
      <rect y="32" width="512" height="12" rx="6" ry="6" />
      <rect y="64" width="584" height="12" rx="6" ry="6" />
    </g>
    <g transform="translate(64 272)">
      <rect width="264" height="200" rx="24" ry="24" fill="#ffffff" opacity="0.9" />
      <rect x="304" width="368" height="96" rx="20" ry="20" fill="#ffffff" opacity="0.85" />
      <rect x="304" y="128" width="368" height="72" rx="20" ry="20" fill="#ffffff" opacity="0.85" />
    </g>
    <rect x="104" y="316" width="184" height="112" rx="20" ry="20" fill="url(#accent)" />
    <rect x="352" y="300" width="224" height="28" rx="14" ry="14" fill="#1b2550" opacity="0.6" />
    <rect x="352" y="348" width="264" height="16" rx="8" ry="8" fill="#1b2550" opacity="0.4" />
    <rect x="352" y="388" width="264" height="16" rx="8" ry="8" fill="#1b2550" opacity="0.4" />
    <rect x="352" y="428" width="264" height="16" rx="8" ry="8" fill="#1b2550" opacity="0.4" />
  </g>
</svg>
